{"title":"Leony April - Fuck Me Hard - 540p.mp4","uid":14418122,"size":346636019,"categoryP":"porn","categoryS":"movie_clips","magnet":"?xt=urn:btih:2f80a554b102c25c42485d68ba19ee1ed15ffef1&amp;dn=Leony+April+-+Fuck+Me+Hard+-+540p.mp4&amp;tr=udp%3A%2F%2Ftracker.leechers-paradise.org%3A6969&amp;tr=udp%3A%2F%2Fzer0day.ch%3A1337&amp;tr=udp%3A%2F%2Fopen.demonii.com%3A1337&amp;tr=udp%3A%2F%2Ftracker.coppersurfer.tk%3A6969&amp;tr=udp%3A%2F%2Fexodus.desync.com%3A6969","seeders":0,"leechers":1,"uploader":"badshah45","files":1,"time":1461512434,"description":"Snaps:\r\n \r\nFormat settings, CABAC : Yes\r\nFormat settings, ReFrames : 4 frames\r\nCodec ID : avc1\r\nCodec ID/Info : Advanced Video Coding\r\nDuration : 21mn 57s\r\nBit rate : 2 000 Kbps\r\nWidth : 960 pixels\r\nHeight : 540 pixels\r\nDisplay aspect ratio : 16:9\r\nFrame rate mode : Constant\r\nFrame rate : 25.000 fps\r\nColor space : YUV\r\nChroma subsampling : 4:2:0\r\nBit depth : 8 bits\r\nScan type : Progressive\r\nBits/(Pixel*Frame) : 0.154\r\nStream size : 313 MiB (95%)\r\nWriting library : x264 core 120\r\nLanguage : English\r\n\r\nAudio\r\nID : 2\r\nFormat : AAC\r\nFormat/Info : Advanced Audio Codec\r\nFormat profile : LC\r\nCodec ID : 40\r\nDuration : 21mn 57s\r\nDuration_LastFrame : -5ms\r\nBit rate mode : Variable\r\nBit rate : 104 Kbps\r\nMaximum bit rate : 128 Kbps\r\nChannel(s) : 2 channels\r\nChannel positions : Front: L R\r\nSampling rate : 44.1 KHz\r\nFrame rate : 43.066 fps (1024 spf)\r\nCompression mode : Lossy\r\nStream size : 16.4 MiB (5%)\r\nLanguage : English\r\nDefault : Yes\r\nAlternate group : 1\r\n\r\n\r\n\r\nPlease Seed","torrent":{"xt":"urn:btih:2f80a554b102c25c42485d68ba19ee1ed15ffef1","amp;dn":"Leony+April+-+Fuck+Me+Hard+-+540p.mp4","amp;tr":["udp%3A%2F%2Ftracker.leechers-paradise.org%3A6969","udp%3A%2F%2Fzer0day.ch%3A1337","udp%3A%2F%2Fopen.demonii.com%3A1337","udp%3A%2F%2Ftracker.coppersurfer.tk%3A6969","udp%3A%2F%2Fexodus.desync.com%3A6969"],"infoHash":"2f80a554b102c25c42485d68ba19ee1ed15ffef1","infoHashBuffer":{"type":"Buffer","data":[47,128,165,84,177,2,194,92,66,72,93,104,186,25,238,30,209,95,254,241]},"announce":[],"urlList":[]}}